<svg width="30" height="30" viewBox="0 0 30 30" fill="none" xmlns="http://www.w3.org/2000/svg">
<path d="M15 0C6.74999 0 0 6.65111 0 14.8428C0 22.2494 5.48999 28.3968 12.66 29.5078V19.1386H8.84999V14.8428H12.66V11.5691C12.66 7.85098 14.895 5.80676 18.33 5.80676C19.965 5.80676 21.675 6.08821 21.675 6.08821V9.74706H19.785C17.925 9.74706 17.34 10.8877 17.34 12.0579V14.8428H21.51L20.835 19.1386H17.34V29.5078C20.8746 28.9565 24.0933 27.1755 26.4149 24.4862C28.7364 21.797 30.008 18.3767 30 14.8428C30 6.65111 23.25 0 15 0Z" fill="white"/>
</svg>
