<svg width="30" height="30" viewBox="0 0 30 30" fill="none" xmlns="http://www.w3.org/2000/svg">
<path d="M8.7 0H21.3C26.1 0 30 3.83602 30 8.55727V20.9505C30 23.2201 29.0834 25.3967 27.4518 27.0014C25.8203 28.6062 23.6074 29.5078 21.3 29.5078H8.7C3.9 29.5078 0 25.6718 0 20.9505V8.55727C0 6.28774 0.916605 4.11116 2.54817 2.50637C4.17974 0.901567 6.39262 0 8.7 0ZM8.4 2.95078C6.96783 2.95078 5.59432 3.51037 4.58162 4.50646C3.56893 5.50254 3 6.85352 3 8.26219V21.2456C3 24.1817 5.415 26.557 8.4 26.557H21.6C23.0322 26.557 24.4057 25.9974 25.4184 25.0014C26.4311 24.0053 27 22.6543 27 21.2456V8.26219C27 5.32616 24.585 2.95078 21.6 2.95078H8.4ZM22.875 5.16387C23.3723 5.16387 23.8492 5.35817 24.2008 5.70403C24.5525 6.04989 24.75 6.51898 24.75 7.00811C24.75 7.49723 24.5525 7.96632 24.2008 8.31218C23.8492 8.65804 23.3723 8.85234 22.875 8.85234C22.3777 8.85234 21.9008 8.65804 21.5492 8.31218C21.1975 7.96632 21 7.49723 21 7.00811C21 6.51898 21.1975 6.04989 21.5492 5.70403C21.9008 5.35817 22.3777 5.16387 22.875 5.16387ZM15 7.37695C16.9891 7.37695 18.8968 8.15417 20.3033 9.53761C21.7098 10.9211 22.5 12.7974 22.5 14.7539C22.5 16.7104 21.7098 18.5868 20.3033 19.9702C18.8968 21.3536 16.9891 22.1309 15 22.1309C13.0109 22.1309 11.1032 21.3536 9.6967 19.9702C8.29018 18.5868 7.5 16.7104 7.5 14.7539C7.5 12.7974 8.29018 10.9211 9.6967 9.53761C11.1032 8.15417 13.0109 7.37695 15 7.37695ZM15 10.3277C13.8065 10.3277 12.6619 10.7941 11.818 11.6241C10.9741 12.4542 10.5 13.58 10.5 14.7539C10.5 15.9278 10.9741 17.0536 11.818 17.8837C12.6619 18.7138 13.8065 19.1801 15 19.1801C16.1935 19.1801 17.3381 18.7138 18.182 17.8837C19.0259 17.0536 19.5 15.9278 19.5 14.7539C19.5 13.58 19.0259 12.4542 18.182 11.6241C17.3381 10.7941 16.1935 10.3277 15 10.3277Z" fill="white"/>
</svg>
