<svg width="30" height="30" viewBox="0 0 30 30" fill="none" xmlns="http://www.w3.org/2000/svg">
<path d="M19.605 0H10.395C1.995 0 0 1.96227 0 10.2245V19.2834C0 27.5455 1.995 29.5078 10.395 29.5078H19.605C28.005 29.5078 30 27.5455 30 19.2834V10.2245C30 1.96227 28.005 0 19.605 0ZM24.225 21.0538H22.035C21.21 21.0538 20.955 20.3899 19.5 18.9293C18.18 17.7047 17.61 17.5276 17.295 17.5276C16.86 17.5276 16.725 17.6457 16.725 18.2653V20.1981C16.725 20.7145 16.56 21.0391 15.165 21.0391C12.855 21.0391 10.29 19.6522 8.49 17.0998C5.775 13.3523 5.04 10.5195 5.04 9.95889C5.04 9.64906 5.145 9.35398 5.775 9.35398H7.98C8.535 9.35398 8.745 9.59004 8.955 10.1802C10.035 13.2785 11.835 15.9342 12.57 15.9342C12.855 15.9342 12.975 15.8014 12.975 15.1228V11.9507C12.9 10.5048 12.105 10.372 12.105 9.85561C12.105 9.59004 12.315 9.35398 12.66 9.35398H16.095C16.56 9.35398 16.725 9.59004 16.725 10.1507V14.4146C16.725 14.8719 16.92 15.0342 17.07 15.0342C17.34 15.0342 17.58 14.8719 18.075 14.3703C19.65 12.6441 20.775 9.97364 20.775 9.97364C20.925 9.66381 21.165 9.36873 21.75 9.36873H23.895C24.555 9.36873 24.705 9.70807 24.555 10.1654C24.285 11.4195 21.615 15.1228 21.645 15.1228C21.405 15.4916 21.315 15.6539 21.645 16.0818C21.87 16.3916 22.635 17.0408 23.145 17.6162C24.075 18.6637 24.795 19.5342 24.99 20.1391C25.155 20.744 24.855 21.0538 24.225 21.0538Z" fill="white"/>
</svg>
